<?xml version="1.0" encoding="utf-8"?>
<!-- Generator: Adobe Illustrator 23.0.3, SVG Export Plug-In . SVG Version: 6.00 Build 0)  -->
<svg version="1.1" id="Layer_1" xmlns="http://www.w3.org/2000/svg" xmlns:xlink="http://www.w3.org/1999/xlink" x="0px" y="0px"
	 viewBox="0 0 1000 1000" style="enable-background:new 0 0 1000 1000;" xml:space="preserve">
<g id="Layer_12">
	<rect x="0" y="0" style="fill:#3E90F4;" width="1000" height="1000"/>
</g>
<g id="Layer_11">
	<polygon style="fill:#3B89EB;" points="0,746.2 241.9,1000 1000,1000 1000,0 0,0 	"/>
</g>
<g id="Layer_10">
	<polygon style="fill:#3883E2;" points="0,551.8 468.5,1000 1000,1000 1000,0 0,0 	"/>
</g>
<g id="Layer_9">
	<polygon style="fill:#347CD9;" points="0,395.6 715.8,1000 1000,1000 1000,0 0,0 	"/>
</g>
<g id="Layer_8">
	<polygon style="fill:#3176D0;" points="0,260.3 991.3,1000 1000,1000 1000,0 0,0 	"/>
</g>
<g id="Layer_7">
	<polygon style="fill:#2E6FC8;" points="0,146.5 1000,801 1000,0 0,0 	"/>
</g>
<g id="Layer_6">
	<polygon style="fill:#2B69BF;" points="0,46.9 1000,613.7 1000,0 0,0 	"/>
</g>
<g>
	<polygon style="fill:#2762B6;" points="1000,440 1000,0 94.3,0 	"/>
</g>
<g id="Layer_3">
	<path style="fill:#245CAD;" d="M1000,259.3V0L278.2,0C454.7,64.1,782,182.6,1000,259.3z"/>
</g>
<g id="Layer_4">
	<polygon style="fill:#2155A4;" points="1000,91.7 1000,0 576.5,0 	"/>
</g>
</svg>
